<svg xmlns="http://www.w3.org/2000/svg" xml:space="preserve" fill-rule="evenodd" stroke-linecap="round" stroke-linejoin="round" stroke-miterlimit="1.5" clip-rule="evenodd" viewBox="0 0 614 176"><path fill="#cc071e" d="M160 96h-16a64 64 0 1 0-64 64v16a80 80 0 1 1 80-80Z"/><path fill="#cc071e" d="m93.9 174.79-2.79-15.76a64.3 64.3 0 0 0 10.78-2.89l5.47 15.03a80.24 80.24 0 0 1-13.47 3.62Zm26.1-9.51-8-13.85a64.2 64.2 0 0 0 9.14-6.4l10.28 12.25a80.1 80.1 0 0 1-11.42 8Zm21.28-17.86-12.25-10.28a64.2 64.2 0 0 0 6.4-9.14l13.85 8a80.1 80.1 0 0 1-8 11.42Zm13.89-24.06-15.03-5.47a64.3 64.3 0 0 0 2.89-10.78l15.76 2.78a80.24 80.24 0 0 1-3.62 13.47Z"/><path fill="none" stroke="#fff" stroke-opacity=".33" stroke-width="2.01" d="M140 96a1.53 1.53 0 0 1-1.57 1.53l-9.17-.24A1.29 1.29 0 0 1 128 96s0 0 0 0v-.03c0-.68.54-1.24 1.23-1.26l9.2-.24A1.53 1.53 0 0 1 140 96s0 0 0 0 0 0 0 0Zm-.33 6.27a1.53 1.53 0 0 1-1.72 1.36l-9.1-1.2a1.3 1.3 0 0 1-1.11-1.41s0 0 0 0v-.03c.07-.68.67-1.18 1.35-1.13l9.18.73a1.53 1.53 0 0 1 1.4 1.68s0 0 0 0 0 0 0 0Zm-.98 6.2a1.52 1.52 0 0 1-1.86 1.18l-8.92-2.15a1.29 1.29 0 0 1-.96-1.52s0 0 0 0v-.03c.15-.67.8-1.1 1.47-.98l9.05 1.68a1.53 1.53 0 0 1 1.22 1.82s0 0 0 0 0 0 0 0Zm-1.63 6.07a1.53 1.53 0 0 1-1.96.97l-8.65-3.06a1.3 1.3 0 0 1-.8-1.62s0 0 0 0v-.02c.22-.65.91-1.02 1.57-.82l8.82 2.61c.4.12.73.39.92.76.2.36.23.79.1 1.18 0 0 0 0 0 0s0 0 0 0Zm-2.25 5.86a1.54 1.54 0 0 1-2.05.76l-8.29-3.95a1.3 1.3 0 0 1-.62-1.69s0 0 0 0l.01-.02c.28-.63 1-.92 1.64-.66l8.5 3.53a1.53 1.53 0 0 1 .81 2.03s0 0 0 0 0 0 0 0Zm-2.85 5.6a1.52 1.52 0 0 1-2.12.54l-7.83-4.8a1.3 1.3 0 0 1-.44-1.74s0 0 0 0l.01-.03c.34-.59 1.1-.8 1.7-.47l8.09 4.39a1.54 1.54 0 0 1 .6 2.11s0 0 0 0h-.01Zm-3.42 5.27a1.53 1.53 0 0 1-2.17.31L119.1 126a1.29 1.29 0 0 1-.26-1.78s0 0 0 0l.02-.03c.4-.55 1.17-.68 1.73-.3l7.6 5.22a1.53 1.53 0 0 1 .36 2.16s0 0 0 0 0 0 0 0Zm-3.95 4.88a1.53 1.53 0 0 1-2.2.09c-1.73-1.66-5.04-4.8-6.65-6.32a1.3 1.3 0 0 1-.07-1.8s0 0 0 0l.02-.02a1.26 1.26 0 0 1 1.75-.12l7 5.98a1.54 1.54 0 0 1 .15 2.19s0 0 0 0 0 0 0 0Zm-4.44 4.44a1.53 1.53 0 0 1-2.19-.14l-5.96-6.98a1.3 1.3 0 0 1 .12-1.8s0 0 0 0l.02-.02c.5-.45 1.29-.43 1.76.07l6.34 6.68a1.53 1.53 0 0 1-.1 2.19s0 0 0 0 0 0 0 0Zm-4.88 3.95a1.54 1.54 0 0 1-2.16-.37l-5.2-7.56a1.3 1.3 0 0 1 .3-1.78s0 0 0 0l.03-.01c.55-.4 1.32-.3 1.74.25l5.6 7.3a1.54 1.54 0 0 1-.31 2.17s0 0 0 0 0 0 0 0Zm-5.27 3.42a1.53 1.53 0 0 1-2.11-.6l-4.38-8.06a1.3 1.3 0 0 1 .49-1.73s0 0 0 0l.03-.01a1.24 1.24 0 0 1 1.7.43l4.81 7.85a1.54 1.54 0 0 1-.54 2.12s0 0 0 0 0 0 0 0Zm-5.6 2.85a1.52 1.52 0 0 1-2.03-.8l-3.51-8.49a1.3 1.3 0 0 1 .66-1.67s0 0 0 0l.03-.01c.62-.28 1.36 0 1.65.6l3.96 8.32a1.53 1.53 0 0 1-.76 2.05s0 0 0 0 0 0 0 0Zm-5.86 2.25a1.53 1.53 0 0 1-1.94-1.02l-2.6-8.8c-.2-.67.17-1.37.83-1.59 0 0 0 0 0 0h.03c.65-.22 1.35.12 1.58.77l3.07 8.68a1.54 1.54 0 0 1-.97 1.96s0 0 0 0 0 0 0 0Zm-6.07 1.63a1.53 1.53 0 0 1-1.82-1.22l-1.67-9.02a1.29 1.29 0 0 1 1-1.5s0 0 0 0H90c.67-.15 1.33.27 1.49.93l2.15 8.95a1.53 1.53 0 0 1-1.17 1.86s0 0 0 0 0 0 0 0Zm-6.2.98a1.53 1.53 0 0 1-1.68-1.4c-.2-2.4-.55-6.94-.72-9.15-.06-.7.45-1.3 1.15-1.38 0 0 0 0 0 0h.03c.68-.08 1.29.4 1.38 1.08l1.2 9.13a1.54 1.54 0 0 1-1.36 1.72s0 0 0 0 0 0 0 0ZM80 156a1.53 1.53 0 0 1-1.53-1.57l.24-9.17c.02-.7.6-1.26 1.29-1.26 0 0 0 0 0 0h.03c.68 0 1.24.54 1.26 1.23l.24 9.2A1.53 1.53 0 0 1 80 156s0 0 0 0 0 0 0 0Zm-6.27-.33a1.53 1.53 0 0 1-1.36-1.72l1.2-9.1c.09-.7.72-1.19 1.41-1.11 0 0 0 0 0 0h.03c.68.07 1.18.67 1.13 1.35l-.73 9.18a1.53 1.53 0 0 1-1.68 1.4s0 0 0 0 0 0 0 0Zm-6.2-.98a1.53 1.53 0 0 1-1.17-1.86l2.14-8.92a1.3 1.3 0 0 1 1.52-.96s0 0 0 0h.03c.67.15 1.1.8.98 1.47l-1.68 9.05a1.53 1.53 0 0 1-1.82 1.22s0 0 0 0 0 0 0 0Zm-6.07-1.63a1.53 1.53 0 0 1-.97-1.96l3.06-8.65a1.3 1.3 0 0 1 1.62-.8s0 0 0 0h.02c.65.22 1.02.91.82 1.57l-2.61 8.82a1.52 1.52 0 0 1-1.94 1.02s0 0 0 0 0 0 0 0Zm-5.86-2.25a1.53 1.53 0 0 1-.76-2.05l3.95-8.29a1.3 1.3 0 0 1 1.69-.62s0 0 0 0l.02.01c.63.28.92 1 .66 1.64l-3.53 8.5a1.52 1.52 0 0 1-2.03.81s0 0 0 0 0 0 0 0Zm-5.6-2.85a1.53 1.53 0 0 1-.54-2.12l4.8-7.83c.36-.6 1.13-.8 1.74-.44 0 0 0 0 0 0l.03.01c.59.34.8 1.1.47 1.7l-4.39 8.09a1.53 1.53 0 0 1-2.11.6s0 0 0 0v-.01Zm-5.27-3.42a1.53 1.53 0 0 1-.31-2.17L50 135.1a1.29 1.29 0 0 1 1.79-.26s0 0 0 0l.02.02c.55.4.68 1.17.3 1.73l-5.22 7.6a1.52 1.52 0 0 1-2.16.36s0 0 0 0 0 0 0 0Zm-4.88-3.95a1.53 1.53 0 0 1-.08-2.2l6.31-6.65a1.3 1.3 0 0 1 1.8-.07s0 0 0 0l.02.02c.51.46.56 1.24.12 1.75l-5.98 7a1.53 1.53 0 0 1-2.19.15s0 0 0 0 0 0 0 0Zm-4.44-4.44a1.53 1.53 0 0 1 .14-2.19l6.98-5.96a1.3 1.3 0 0 1 1.8.12s0 0 0 0l.02.02c.46.5.43 1.29-.07 1.76l-6.68 6.34a1.53 1.53 0 0 1-2.19-.1s0 0 0 0 0 0 0 0Zm-3.95-4.88a1.53 1.53 0 0 1 .37-2.16l7.56-5.2a1.3 1.3 0 0 1 1.78.3s0 0 0 0l.01.03c.4.55.3 1.32-.25 1.74l-7.3 5.6a1.53 1.53 0 0 1-2.17-.31s0 0 0 0 0 0 0 0ZM28.04 126a1.53 1.53 0 0 1 .6-2.11l8.06-4.38a1.29 1.29 0 0 1 1.73.49s0 0 0 0l.02.03c.34.59.15 1.34-.44 1.7l-7.85 4.81a1.53 1.53 0 0 1-2.12-.54s0 0 0 0 0 0 0 0Zm-2.85-5.6a1.53 1.53 0 0 1 .8-2.03l8.49-3.51c.64-.27 1.38.02 1.67.66 0 0 0 0 0 0l.01.03c.28.62.01 1.36-.6 1.65l-8.32 3.96a1.54 1.54 0 0 1-2.05-.76s0 0 0 0 0 0 0 0Zm-2.25-5.86a1.53 1.53 0 0 1 1.02-1.94l8.8-2.6c.67-.2 1.37.17 1.59.83 0 0 0 0 0 0v.03c.22.65-.13 1.35-.77 1.58l-8.68 3.07a1.54 1.54 0 0 1-1.96-.97s0 0 0 0 0 0 0 0Zm-1.63-6.07a1.53 1.53 0 0 1 1.22-1.82l9.02-1.67a1.3 1.3 0 0 1 1.5 1s0 0 0 0v.03c.15.67-.27 1.33-.93 1.49l-8.96 2.15a1.53 1.53 0 0 1-1.85-1.17s0 0 0 0 0 0 0 0Zm-.98-6.2a1.53 1.53 0 0 1 1.4-1.68c2.39-.2 6.94-.55 9.15-.72.7-.06 1.3.45 1.38 1.15 0 0 0 0 0 0v.03c.08.68-.4 1.29-1.08 1.38l-9.13 1.2a1.54 1.54 0 0 1-1.72-1.36s0 0 0 0 0 0 0 0ZM20 96a1.53 1.53 0 0 1 1.57-1.53l9.17.24A1.29 1.29 0 0 1 32 96v.03c0 .68-.54 1.24-1.23 1.26l-9.2.24A1.53 1.53 0 0 1 20 96s0 0 0 0 0 0 0 0Zm.33-6.27a1.53 1.53 0 0 1 1.72-1.36l9.1 1.2c.7.09 1.19.72 1.11 1.41 0 0 0 0 0 0v.03a1.26 1.26 0 0 1-1.35 1.13l-9.18-.73a1.53 1.53 0 0 1-1.4-1.68s0 0 0 0 0 0 0 0Zm.98-6.2a1.53 1.53 0 0 1 1.85-1.17c2.34.55 6.77 1.62 8.93 2.14.68.16 1.1.84.96 1.52 0 0 0 0 0 0v.03c-.15.67-.8 1.1-1.47.98l-9.05-1.68a1.53 1.53 0 0 1-1.22-1.82s0 0 0 0 0 0 0 0Zm1.63-6.07a1.53 1.53 0 0 1 1.96-.97l8.65 3.06c.66.24 1.01.95.8 1.62 0 0 0 0 0 0l-.01.02c-.21.65-.9 1.02-1.56.82l-8.82-2.61a1.53 1.53 0 0 1-1.02-1.94s0 0 0 0 0 0 0 0Zm2.25-5.86a1.53 1.53 0 0 1 2.05-.76l8.29 3.95a1.29 1.29 0 0 1 .62 1.69l-.01.02c-.28.63-1 .92-1.64.66L26 73.63a1.53 1.53 0 0 1-.81-2.03s0 0 0 0Zm2.85-5.6a1.53 1.53 0 0 1 2.12-.54l7.83 4.8c.6.36.79 1.13.44 1.74 0 0 0 0 0 0l-.01.03c-.35.59-1.1.8-1.7.47l-8.09-4.39a1.53 1.53 0 0 1-.6-2.11s0 0 0 0 0 0 0 0Zm3.42-5.27a1.53 1.53 0 0 1 2.17-.31L40.9 66c.55.43.67 1.22.26 1.79 0 0 0 0 0 0l-.02.02c-.4.55-1.17.68-1.73.3l-7.59-5.22a1.53 1.53 0 0 1-.37-2.16s0 0 0 0 0 0 0 0Zm3.95-4.88a1.53 1.53 0 0 1 2.2-.08l6.65 6.31c.5.48.54 1.28.07 1.8 0 0 0 0 0 0l-.02.02c-.46.51-1.24.56-1.76.12l-7-5.98a1.53 1.53 0 0 1-.14-2.19s0 0 0 0 0 0 0 0Zm4.44-4.44a1.53 1.53 0 0 1 2.19.14L48 58.53c.45.53.4 1.33-.12 1.8 0 0 0 0 0 0l-.02.02c-.5.46-1.29.43-1.76-.07l-6.33-6.68a1.53 1.53 0 0 1 .08-2.19s0 0 0 0 0 0 0 0Zm4.88-3.95a1.53 1.53 0 0 1 2.16.37l5.2 7.56c.4.58.26 1.37-.3 1.78 0 0 0 0 0 0l-.03.01c-.55.4-1.32.3-1.74-.25l-5.6-7.3a1.53 1.53 0 0 1 .31-2.17s0 0 0 0 0 0 0 0ZM50 44.04a1.53 1.53 0 0 1 2.11.6l4.38 8.06c.33.61.12 1.38-.49 1.73 0 0 0 0 0 0l-.03.02c-.59.34-1.34.15-1.7-.44l-4.81-7.85a1.53 1.53 0 0 1 .54-2.12s0 0 0 0Zm5.6-2.85a1.53 1.53 0 0 1 2.03.8l3.51 8.49c.27.64-.02 1.38-.66 1.67 0 0 0 0 0 0l-.03.01c-.62.28-1.36.01-1.65-.6l-3.96-8.32a1.53 1.53 0 0 1 .75-2.05s0 0 0 0 0 0 0 0Zm5.86-2.25a1.53 1.53 0 0 1 1.94 1.02l2.6 8.8c.2.67-.17 1.37-.83 1.59 0 0 0 0 0 0h-.03a1.26 1.26 0 0 1-1.58-.77L60.5 40.9a1.53 1.53 0 0 1 .97-1.96s0 0 0 0Zm6.07-1.63a1.53 1.53 0 0 1 1.82 1.22l1.67 9.02a1.3 1.3 0 0 1-1 1.5s0 0 0 0h-.03a1.26 1.26 0 0 1-1.49-.93l-2.14-8.96a1.53 1.53 0 0 1 1.17-1.85s0 0 0 0Zm6.2-.98a1.53 1.53 0 0 1 1.68 1.4c.2 2.39.55 6.94.72 9.15.06.7-.45 1.3-1.15 1.38 0 0 0 0 0 0h-.03c-.68.08-1.29-.4-1.38-1.08l-1.2-9.13a1.53 1.53 0 0 1 1.36-1.72s0 0 0 0ZM80 36a1.53 1.53 0 0 1 1.53 1.57l-.24 9.17A1.3 1.3 0 0 1 80 48s0 0 0 0h-.03c-.68 0-1.24-.54-1.26-1.23l-.24-9.2A1.53 1.53 0 0 1 80 36s0 0 0 0Zm6.27.33a1.53 1.53 0 0 1 1.36 1.72l-1.2 9.1a1.3 1.3 0 0 1-1.41 1.11s0 0 0 0h-.03a1.26 1.26 0 0 1-1.13-1.35l.73-9.18a1.53 1.53 0 0 1 1.68-1.4s0 0 0 0Zm6.2.98a1.53 1.53 0 0 1 1.18 1.85L91.5 48.1a1.3 1.3 0 0 1-1.52.96s0 0 0 0h-.03a1.26 1.26 0 0 1-.98-1.47l1.68-9.05a1.53 1.53 0 0 1 1.82-1.22s0 0 0 0 0 0 0 0Zm6.07 1.63a1.53 1.53 0 0 1 .97 1.96l-3.06 8.65a1.3 1.3 0 0 1-1.62.8s0 0 0 0l-.02-.01a1.26 1.26 0 0 1-.82-1.56l2.61-8.82a1.52 1.52 0 0 1 1.94-1.02s0 0 0 0 0 0 0 0Zm5.86 2.25a1.54 1.54 0 0 1 .76 2.05l-3.95 8.29c-.3.63-1.05.9-1.69.62 0 0 0 0 0 0l-.02-.01c-.63-.28-.92-1-.66-1.64l3.53-8.5a1.53 1.53 0 0 1 2.03-.81s0 0 0 0 0 0 0 0Zm5.6 2.85a1.53 1.53 0 0 1 .54 2.12l-4.8 7.83c-.36.6-1.13.79-1.74.44 0 0 0 0 0 0l-.03-.01c-.59-.35-.8-1.1-.47-1.7l4.39-8.09a1.54 1.54 0 0 1 2.11-.6s0 0 0 0 0 0 0 0Zm5.27 3.42a1.53 1.53 0 0 1 .31 2.17L110 56.9a1.3 1.3 0 0 1-1.78.26s0 0 0 0l-.03-.02a1.26 1.26 0 0 1-.3-1.73l5.22-7.59a1.53 1.53 0 0 1 2.16-.37s0 0 0 0 0 0 0 0Zm4.88 3.95a1.53 1.53 0 0 1 .09 2.2c-1.66 1.73-4.8 5.04-6.32 6.65a1.3 1.3 0 0 1-1.8.07s0 0 0 0l-.02-.02a1.26 1.26 0 0 1-.12-1.76l5.98-7a1.53 1.53 0 0 1 2.19-.14s0 0 0 0 0 0 0 0Zm4.44 4.44a1.53 1.53 0 0 1-.14 2.19L117.47 64a1.3 1.3 0 0 1-1.8-.12s0 0 0 0l-.02-.02c-.45-.5-.43-1.29.07-1.76l6.68-6.33a1.53 1.53 0 0 1 2.19.08s0 0 0 0 0 0 0 0Zm3.95 4.88a1.54 1.54 0 0 1-.37 2.16l-7.56 5.2a1.3 1.3 0 0 1-1.78-.3s0 0 0 0l-.01-.03c-.4-.55-.3-1.32.25-1.74l7.3-5.6a1.53 1.53 0 0 1 2.17.31s0 0 0 0Zm3.42 5.27a1.53 1.53 0 0 1-.6 2.11l-8.06 4.38a1.3 1.3 0 0 1-1.73-.49s0 0 0 0l-.01-.03a1.24 1.24 0 0 1 .43-1.7l7.85-4.81a1.53 1.53 0 0 1 2.12.54s0 0 0 0 0 0 0 0Zm2.85 5.6a1.53 1.53 0 0 1-.8 2.03l-8.49 3.51a1.3 1.3 0 0 1-1.67-.66s0 0 0 0l-.01-.03c-.28-.62 0-1.36.6-1.65l8.32-3.96a1.53 1.53 0 0 1 2.05.75s0 0 0 0 0 0 0 0Zm2.25 5.86a1.53 1.53 0 0 1-1.02 1.94l-8.8 2.6c-.67.2-1.37-.17-1.59-.83 0 0 0 0 0 0v-.03c-.22-.65.12-1.35.77-1.58l8.68-3.07a1.53 1.53 0 0 1 1.96.97s0 0 0 0 0 0 0 0Zm1.63 6.07a1.53 1.53 0 0 1-1.22 1.82l-9.02 1.67a1.29 1.29 0 0 1-1.5-1s0 0 0 0v-.03c-.15-.67.27-1.33.93-1.49l8.95-2.14a1.53 1.53 0 0 1 1.86 1.16s0 0 0 0 0 0 0 0Zm.98 6.2a1.53 1.53 0 0 1-1.4 1.68c-2.4.2-6.94.55-9.15.72-.7.06-1.3-.45-1.38-1.15 0 0 0 0 0 0v-.03c-.08-.68.4-1.29 1.08-1.38l9.13-1.2a1.53 1.53 0 0 1 1.72 1.36s0 0 0 0 0 0 0 0Z"/><path fill="#1f221c" fill-opacity=".33" d="M140 96a1.53 1.53 0 0 1-1.57 1.53l-9.17-.24A1.29 1.29 0 0 1 128 96v-.03c0-.68.54-1.24 1.23-1.26l9.2-.24A1.53 1.53 0 0 1 140 96Zm-.33 6.27a1.53 1.53 0 0 1-1.72 1.36l-9.1-1.2a1.3 1.3 0 0 1-1.11-1.41v-.03c.07-.68.67-1.18 1.35-1.13l9.18.73a1.53 1.53 0 0 1 1.4 1.68Zm-.98 6.2a1.52 1.52 0 0 1-1.86 1.18l-8.92-2.15a1.29 1.29 0 0 1-.96-1.52v-.03c.15-.67.8-1.1 1.47-.98l9.05 1.68a1.53 1.53 0 0 1 1.22 1.82Zm-1.63 6.07a1.53 1.53 0 0 1-1.96.97l-8.65-3.06a1.3 1.3 0 0 1-.8-1.62v-.02c.22-.65.91-1.02 1.57-.82l8.82 2.61c.4.12.73.39.92.76.2.36.23.79.1 1.18Zm-2.25 5.86a1.54 1.54 0 0 1-2.05.76l-8.29-3.95a1.3 1.3 0 0 1-.62-1.69l.01-.02c.28-.63 1-.92 1.64-.66l8.5 3.53a1.53 1.53 0 0 1 .81 2.03Zm-2.85 5.6a1.52 1.52 0 0 1-2.12.54l-7.83-4.8a1.3 1.3 0 0 1-.44-1.74l.01-.03c.34-.59 1.1-.8 1.7-.47l8.09 4.39a1.54 1.54 0 0 1 .6 2.11h-.01Zm-3.42 5.27a1.53 1.53 0 0 1-2.17.31L119.1 126a1.29 1.29 0 0 1-.26-1.78l.02-.03c.4-.55 1.17-.68 1.73-.3l7.6 5.22a1.53 1.53 0 0 1 .36 2.16Zm-3.95 4.88a1.53 1.53 0 0 1-2.2.09c-1.73-1.66-5.04-4.8-6.65-6.32a1.3 1.3 0 0 1-.07-1.8l.02-.02a1.26 1.26 0 0 1 1.75-.12l7 5.98a1.54 1.54 0 0 1 .15 2.19Zm-4.44 4.44a1.53 1.53 0 0 1-2.19-.14l-5.96-6.98a1.3 1.3 0 0 1 .12-1.8l.02-.02c.5-.45 1.29-.43 1.76.07l6.34 6.68a1.53 1.53 0 0 1-.1 2.19Zm-4.88 3.95a1.54 1.54 0 0 1-2.16-.37l-5.2-7.56a1.3 1.3 0 0 1 .3-1.78l.03-.01c.55-.4 1.32-.3 1.74.25l5.6 7.3a1.54 1.54 0 0 1-.31 2.17Zm-5.27 3.42a1.53 1.53 0 0 1-2.11-.6l-4.38-8.06a1.3 1.3 0 0 1 .49-1.73l.03-.01a1.24 1.24 0 0 1 1.7.43l4.81 7.85a1.54 1.54 0 0 1-.54 2.12Zm-5.6 2.85a1.52 1.52 0 0 1-2.03-.8l-3.51-8.49a1.3 1.3 0 0 1 .66-1.67l.03-.01c.62-.28 1.36 0 1.65.6l3.96 8.32a1.53 1.53 0 0 1-.76 2.05Zm-5.86 2.25a1.53 1.53 0 0 1-1.94-1.02l-2.6-8.8c-.2-.67.17-1.37.83-1.59h.03c.65-.22 1.35.12 1.58.77l3.07 8.68a1.54 1.54 0 0 1-.97 1.96Zm-6.07 1.63a1.53 1.53 0 0 1-1.82-1.22l-1.67-9.02a1.29 1.29 0 0 1 1-1.5H90c.67-.15 1.33.27 1.49.93l2.15 8.95a1.53 1.53 0 0 1-1.17 1.86Zm-6.2.98a1.53 1.53 0 0 1-1.68-1.4c-.2-2.4-.55-6.94-.72-9.15-.06-.7.45-1.3 1.15-1.38h.03c.68-.08 1.29.4 1.38 1.08l1.2 9.13a1.54 1.54 0 0 1-1.36 1.72ZM80 156a1.53 1.53 0 0 1-1.53-1.57l.24-9.17c.02-.7.6-1.26 1.29-1.26h.03c.68 0 1.24.54 1.26 1.23l.24 9.2A1.53 1.53 0 0 1 80 156Zm-6.27-.33a1.53 1.53 0 0 1-1.36-1.72l1.2-9.1c.09-.7.72-1.19 1.41-1.11h.03c.68.07 1.18.67 1.13 1.35l-.73 9.18a1.53 1.53 0 0 1-1.68 1.4Zm-6.2-.98a1.53 1.53 0 0 1-1.17-1.86l2.14-8.92a1.3 1.3 0 0 1 1.52-.96h.03c.67.15 1.1.8.98 1.47l-1.68 9.05a1.53 1.53 0 0 1-1.82 1.22Zm-6.07-1.63a1.53 1.53 0 0 1-.97-1.96l3.06-8.65a1.3 1.3 0 0 1 1.62-.8h.02c.65.22 1.02.91.82 1.57l-2.61 8.82a1.52 1.52 0 0 1-1.94 1.02Zm-5.86-2.25a1.53 1.53 0 0 1-.76-2.05l3.95-8.29a1.3 1.3 0 0 1 1.69-.62l.02.01c.63.28.92 1 .66 1.64l-3.53 8.5a1.52 1.52 0 0 1-2.03.81Zm-5.6-2.85a1.53 1.53 0 0 1-.54-2.12l4.8-7.83c.36-.6 1.13-.8 1.74-.44l.03.01c.59.34.8 1.1.47 1.7l-4.39 8.09a1.53 1.53 0 0 1-2.11.6v-.01Zm-5.27-3.42a1.53 1.53 0 0 1-.31-2.17L50 135.1a1.29 1.29 0 0 1 1.79-.26l.02.02c.55.4.68 1.17.3 1.73l-5.22 7.6a1.52 1.52 0 0 1-2.16.36Zm-4.88-3.95a1.53 1.53 0 0 1-.08-2.2l6.31-6.65a1.3 1.3 0 0 1 1.8-.07l.02.02c.51.46.56 1.24.12 1.75l-5.98 7a1.53 1.53 0 0 1-2.19.15Zm-4.44-4.44a1.53 1.53 0 0 1 .14-2.19l6.98-5.96a1.3 1.3 0 0 1 1.8.12l.02.02c.46.5.43 1.29-.07 1.76l-6.68 6.34a1.53 1.53 0 0 1-2.19-.1Zm-3.95-4.88a1.53 1.53 0 0 1 .37-2.16l7.56-5.2a1.3 1.3 0 0 1 1.78.3l.01.03c.4.55.3 1.32-.25 1.74l-7.3 5.6a1.53 1.53 0 0 1-2.17-.31ZM28.04 126a1.53 1.53 0 0 1 .6-2.11l8.06-4.38a1.29 1.29 0 0 1 1.73.49l.02.03c.34.59.15 1.34-.44 1.7l-7.85 4.81a1.53 1.53 0 0 1-2.12-.54Zm-2.85-5.6a1.53 1.53 0 0 1 .8-2.03l8.49-3.51c.64-.27 1.38.02 1.67.66l.01.03c.28.62.01 1.36-.6 1.65l-8.32 3.96a1.54 1.54 0 0 1-2.05-.76Zm-2.25-5.86a1.53 1.53 0 0 1 1.02-1.94l8.8-2.6c.67-.2 1.37.17 1.59.83v.03c.22.65-.13 1.35-.77 1.58l-8.68 3.07a1.54 1.54 0 0 1-1.96-.97Zm-1.63-6.07a1.53 1.53 0 0 1 1.22-1.82l9.02-1.67a1.3 1.3 0 0 1 1.5 1v.03c.15.67-.27 1.33-.93 1.49l-8.96 2.15a1.53 1.53 0 0 1-1.85-1.17Zm-.98-6.2a1.53 1.53 0 0 1 1.4-1.68c2.39-.2 6.94-.55 9.15-.72.7-.06 1.3.45 1.38 1.15v.03c.08.68-.4 1.29-1.08 1.38l-9.13 1.2a1.54 1.54 0 0 1-1.72-1.36ZM20 96a1.53 1.53 0 0 1 1.57-1.53l9.17.24A1.29 1.29 0 0 1 32 96v.03c0 .68-.54 1.24-1.23 1.26l-9.2.24A1.53 1.53 0 0 1 20 96Zm.33-6.27a1.53 1.53 0 0 1 1.72-1.36l9.1 1.2c.7.09 1.19.72 1.11 1.41v.03a1.26 1.26 0 0 1-1.35 1.13l-9.18-.73a1.53 1.53 0 0 1-1.4-1.68Zm.98-6.2a1.53 1.53 0 0 1 1.85-1.17c2.34.55 6.77 1.62 8.93 2.14.68.16 1.1.84.96 1.52v.03c-.15.67-.8 1.1-1.47.98l-9.05-1.68a1.53 1.53 0 0 1-1.22-1.82Zm1.63-6.07a1.53 1.53 0 0 1 1.96-.97l8.65 3.06c.66.24 1.01.95.8 1.62l-.01.02c-.21.65-.9 1.02-1.56.82l-8.82-2.61a1.53 1.53 0 0 1-1.02-1.94Zm2.25-5.86a1.53 1.53 0 0 1 2.05-.76l8.29 3.95a1.29 1.29 0 0 1 .62 1.69l-.01.02c-.28.63-1 .92-1.64.66L26 73.63a1.53 1.53 0 0 1-.81-2.03Zm2.85-5.6a1.53 1.53 0 0 1 2.12-.54l7.83 4.8c.6.36.79 1.13.44 1.74l-.01.03c-.35.59-1.1.8-1.7.47l-8.09-4.39a1.53 1.53 0 0 1-.6-2.11Zm3.42-5.27a1.53 1.53 0 0 1 2.17-.31L40.9 66c.55.43.67 1.22.26 1.79l-.02.02c-.4.55-1.17.68-1.73.3l-7.59-5.22a1.53 1.53 0 0 1-.37-2.16Zm3.95-4.88a1.53 1.53 0 0 1 2.2-.08l6.65 6.31c.5.48.54 1.28.07 1.8l-.02.02c-.46.51-1.24.56-1.76.12l-7-5.98a1.53 1.53 0 0 1-.14-2.19Zm4.44-4.44a1.53 1.53 0 0 1 2.19.14L48 58.53c.45.53.4 1.33-.12 1.8l-.02.02c-.5.46-1.29.43-1.76-.07l-6.33-6.68a1.53 1.53 0 0 1 .08-2.19Zm4.88-3.95a1.53 1.53 0 0 1 2.16.37l5.2 7.56c.4.58.26 1.37-.3 1.78l-.03.01c-.55.4-1.32.3-1.74-.25l-5.6-7.3a1.53 1.53 0 0 1 .31-2.17ZM50 44.04a1.53 1.53 0 0 1 2.11.6l4.38 8.06c.33.61.12 1.38-.49 1.73l-.03.02c-.59.34-1.34.15-1.7-.44l-4.81-7.85a1.53 1.53 0 0 1 .54-2.12Zm5.6-2.85a1.53 1.53 0 0 1 2.03.8l3.51 8.49c.27.64-.02 1.38-.66 1.67l-.03.01c-.62.28-1.36.01-1.65-.6l-3.96-8.32a1.53 1.53 0 0 1 .75-2.05Zm5.86-2.25a1.53 1.53 0 0 1 1.94 1.02l2.6 8.8c.2.67-.17 1.37-.83 1.59h-.03a1.26 1.26 0 0 1-1.58-.77L60.5 40.9a1.53 1.53 0 0 1 .97-1.96Zm6.07-1.63a1.53 1.53 0 0 1 1.82 1.22l1.67 9.02a1.3 1.3 0 0 1-1 1.5h-.03a1.26 1.26 0 0 1-1.49-.93l-2.14-8.96a1.53 1.53 0 0 1 1.17-1.85Zm6.2-.98a1.53 1.53 0 0 1 1.68 1.4c.2 2.39.55 6.94.72 9.15.06.7-.45 1.3-1.15 1.38h-.03c-.68.08-1.29-.4-1.38-1.08l-1.2-9.13a1.53 1.53 0 0 1 1.36-1.72ZM80 36a1.53 1.53 0 0 1 1.53 1.57l-.24 9.17A1.3 1.3 0 0 1 80 48h-.03c-.68 0-1.24-.54-1.26-1.23l-.24-9.2A1.53 1.53 0 0 1 80 36Zm6.27.33a1.53 1.53 0 0 1 1.36 1.72l-1.2 9.1a1.3 1.3 0 0 1-1.41 1.11h-.03a1.26 1.26 0 0 1-1.13-1.35l.73-9.18a1.53 1.53 0 0 1 1.68-1.4Zm6.2.98a1.53 1.53 0 0 1 1.18 1.85L91.5 48.1a1.3 1.3 0 0 1-1.52.96h-.03a1.26 1.26 0 0 1-.98-1.47l1.68-9.05a1.53 1.53 0 0 1 1.82-1.22Zm6.07 1.63a1.53 1.53 0 0 1 .97 1.96l-3.06 8.65a1.3 1.3 0 0 1-1.62.8l-.02-.01a1.26 1.26 0 0 1-.82-1.56l2.61-8.82a1.52 1.52 0 0 1 1.94-1.02Zm5.86 2.25a1.54 1.54 0 0 1 .76 2.05l-3.95 8.29c-.3.63-1.05.9-1.69.62l-.02-.01c-.63-.28-.92-1-.66-1.64l3.53-8.5a1.53 1.53 0 0 1 2.03-.81Zm5.6 2.85a1.53 1.53 0 0 1 .54 2.12l-4.8 7.83c-.36.6-1.13.79-1.74.44l-.03-.01c-.59-.35-.8-1.1-.47-1.7l4.39-8.09a1.54 1.54 0 0 1 2.11-.6Zm5.27 3.42a1.53 1.53 0 0 1 .31 2.17L110 56.9a1.3 1.3 0 0 1-1.78.26l-.03-.02a1.26 1.26 0 0 1-.3-1.73l5.22-7.59a1.53 1.53 0 0 1 2.16-.37Zm4.88 3.95a1.53 1.53 0 0 1 .09 2.2c-1.66 1.73-4.8 5.04-6.32 6.65a1.3 1.3 0 0 1-1.8.07l-.02-.02a1.26 1.26 0 0 1-.12-1.76l5.98-7a1.53 1.53 0 0 1 2.19-.14Zm4.44 4.44a1.53 1.53 0 0 1-.14 2.19L117.47 64a1.3 1.3 0 0 1-1.8-.12l-.02-.02c-.45-.5-.43-1.29.07-1.76l6.68-6.33a1.53 1.53 0 0 1 2.19.08Zm3.95 4.88a1.54 1.54 0 0 1-.37 2.16l-7.56 5.2a1.3 1.3 0 0 1-1.78-.3l-.01-.03c-.4-.55-.3-1.32.25-1.74l7.3-5.6a1.53 1.53 0 0 1 2.17.31Zm3.42 5.27a1.53 1.53 0 0 1-.6 2.11l-8.06 4.38a1.3 1.3 0 0 1-1.73-.49l-.01-.03a1.24 1.24 0 0 1 .43-1.7l7.85-4.81a1.53 1.53 0 0 1 2.12.54Zm2.85 5.6a1.53 1.53 0 0 1-.8 2.03l-8.49 3.51a1.3 1.3 0 0 1-1.67-.66l-.01-.03c-.28-.62 0-1.36.6-1.65l8.32-3.96a1.53 1.53 0 0 1 2.05.75Zm2.25 5.86a1.53 1.53 0 0 1-1.02 1.94l-8.8 2.6c-.67.2-1.37-.17-1.59-.83v-.03c-.22-.65.12-1.35.77-1.58l8.68-3.07a1.53 1.53 0 0 1 1.96.97Zm1.63 6.07a1.53 1.53 0 0 1-1.22 1.82l-9.02 1.67a1.29 1.29 0 0 1-1.5-1v-.03c-.15-.67.27-1.33.93-1.49l8.95-2.14a1.53 1.53 0 0 1 1.86 1.16Zm.98 6.2a1.53 1.53 0 0 1-1.4 1.68c-2.4.2-6.94.55-9.15.72-.7.06-1.3-.45-1.38-1.15v-.03c-.08-.68.4-1.29 1.08-1.38l9.13-1.2a1.53 1.53 0 0 1 1.72 1.36Z"/><path fill="none" stroke="#fff" stroke-miterlimit="99" stroke-width="4.32" d="M195.76 69.8h41.62v7.77h-16.34v43.63h-9V77.57h-16.28v-7.78Zm44.5 0h8.21v7.77h-8.2v-7.78Zm0 14.18h8.21v37.22h-8.2V83.98Zm14.98 0H263v5.18h.22c.65-.93 1.3-1.73 2.02-2.52a9.12 9.12 0 0 1 2.44-1.94c.87-.5 1.88-.94 3.03-1.3 1.15-.29 2.45-.43 3.96-.43 2.23 0 4.39.5 6.33 1.51a8.7 8.7 0 0 1 4.1 4.68 15.95 15.95 0 0 1 4.83-4.53c1.8-1.08 4.1-1.66 6.84-1.66 3.96 0 6.99.94 9.22 2.88 2.16 1.94 3.24 5.11 3.24 9.65v25.7h-8.21V99.46c0-1.51-.07-2.81-.14-4.1a8.54 8.54 0 0 0-.8-3.17 5.13 5.13 0 0 0-2.08-2.02 7.88 7.88 0 0 0-3.75-.72c-2.8 0-4.82.86-6.05 2.6-1.22 1.72-1.87 4.17-1.87 7.34v21.81h-8.2V97.3c0-2.6-.44-4.54-1.37-5.9-1.01-1.3-2.67-1.95-5.19-1.95-1.08 0-2.09.22-3.02.65a7.49 7.49 0 0 0-2.6 1.87c-.79.8-1.36 1.8-1.8 3.02a10.8 10.8 0 0 0-.71 4.1v22.11h-8.21V83.98Zm86.04 15.33a11.51 11.51 0 0 0-2.66-6.91c-.8-.86-1.8-1.58-2.89-2.16a9.52 9.52 0 0 0-3.81-.79 9.6 9.6 0 0 0-3.89.72 8.4 8.4 0 0 0-3.02 2.09c-.87.93-1.52 1.94-2.02 3.17-.5 1.22-.8 2.52-.86 3.88h19.15Zm-19.15 5.4c0 1.44.21 2.81.64 4.18a9.67 9.67 0 0 0 1.8 3.53c.8 1 1.88 1.8 3.1 2.37a9.5 9.5 0 0 0 4.46.94c2.38 0 4.32-.5 5.84-1.58a8.93 8.93 0 0 0 3.24-4.61h7.77a15.04 15.04 0 0 1-6.05 9.36 17.95 17.95 0 0 1-4.96 2.52c-1.88.5-3.82.79-5.84.79-2.95 0-5.54-.5-7.77-1.44a15.45 15.45 0 0 1-5.69-4.03 16.96 16.96 0 0 1-3.53-6.2 25.03 25.03 0 0 1-1.22-7.91c0-2.67.43-5.12 1.3-7.56a17.92 17.92 0 0 1 3.6-6.27 16.8 16.8 0 0 1 13.1-5.83c2.95 0 5.54.58 7.92 1.8a17.27 17.27 0 0 1 5.76 4.9 20.64 20.64 0 0 1 3.38 6.9c.65 2.67.87 5.34.5 8.14h-27.35ZM367.7 69.8h41.62v7.77h-16.34v43.63h-9V77.57H367.7v-7.78Z"/><path fill="none" stroke="#fff" stroke-miterlimit="99" stroke-width="4.32" d="M405.36 83.98h7.7v7.2h.15a7.5 7.5 0 0 1 1.44-2.95 12.5 12.5 0 0 1 2.52-2.67c.93-.72 2.01-1.37 3.24-1.87a9.53 9.53 0 0 1 3.67-.72c.93 0 1.65 0 2.01.07.36.07.72.07 1.08.15v7.92c-.57-.08-1.15-.15-1.72-.3-.65-.06-1.23-.06-1.8-.06-1.37 0-2.67.28-3.9.79a9.65 9.65 0 0 0-3.23 2.45 11.37 11.37 0 0 0-2.16 4.03 17.9 17.9 0 0 0-.8 5.47v17.71h-8.2V83.98Zm54.35 28.94c0 1.01.15 1.73.44 2.16.21.43.72.65 1.5.65h.87c.36 0 .72-.07 1.15-.14v5.68c-.28.08-.64.22-1.08.36-.5.08-.93.22-1.44.3-.5.06-.93.14-1.44.2-.5.08-.86.08-1.22.08-1.66 0-3.1-.36-4.18-1-1.08-.66-1.8-1.88-2.16-3.54a15.01 15.01 0 0 1-5.97 3.46 23.79 23.79 0 0 1-6.91 1.08c-1.66 0-3.32-.22-4.83-.65a12.61 12.61 0 0 1-4.03-2.09 8.57 8.57 0 0 1-2.8-3.38 10.06 10.06 0 0 1-1.09-4.75c0-2.3.43-4.18 1.3-5.62a8.8 8.8 0 0 1 3.31-3.38c1.37-.8 2.88-1.44 4.6-1.8 1.66-.36 3.4-.58 5.12-.8a51 51 0 0 1 4.25-.64c1.37-.07 2.52-.29 3.6-.58 1-.29 1.8-.72 2.45-1.37.57-.57.86-1.44.86-2.66a4.1 4.1 0 0 0-.72-2.6 5.64 5.64 0 0 0-1.87-1.58 9.3 9.3 0 0 0-2.52-.72c-.94-.07-1.8-.14-2.6-.14-2.3 0-4.17.5-5.68 1.44-1.51.94-2.3 2.45-2.52 4.46h-8.21c.14-2.37.72-4.39 1.73-5.97 1-1.59 2.3-2.88 3.89-3.82a15.37 15.37 0 0 1 5.25-2.01c1.95-.36 3.96-.58 6.05-.58 1.8 0 3.6.22 5.4.58 1.8.36 3.38 1 4.82 1.87 1.37.86 2.52 1.94 3.39 3.31a9.37 9.37 0 0 1 1.3 5.04v19.15Zm-8.2-10.37a9.84 9.84 0 0 1-4.61 1.44c-1.8.22-3.67.44-5.47.8-.87.14-1.73.36-2.52.57-.8.29-1.52.65-2.16 1.08a4.99 4.99 0 0 0-1.44 1.8c-.36.8-.58 1.66-.58 2.74 0 .93.29 1.65.8 2.3.5.65 1.14 1.15 1.94 1.44.72.36 1.5.65 2.44.8.87.14 1.66.21 2.38.21.94 0 1.87-.14 2.95-.36a8.46 8.46 0 0 0 5.33-3.46 5.2 5.2 0 0 0 .94-3.24v-6.12Zm40.03-6.12c-.36-2.3-1.23-4.03-2.74-5.25a9.43 9.43 0 0 0-5.76-1.73c-1.08 0-2.16.14-3.38.5a9.33 9.33 0 0 0-3.32 2.02c-1 1-1.87 2.38-2.52 4.1-.64 1.8-1 4.1-1 6.92 0 1.5.21 3.1.57 4.6.36 1.52.87 2.88 1.73 4.1a8.9 8.9 0 0 0 3.02 2.89 8.17 8.17 0 0 0 4.54 1.15c2.38 0 4.4-.72 5.98-2.23a10.62 10.62 0 0 0 2.88-6.27h8.2c-.79 4.83-2.59 8.57-5.47 11.1-2.95 2.58-6.77 3.88-11.59 3.88-2.95 0-5.47-.5-7.7-1.51a15.45 15.45 0 0 1-5.7-4.03 16.64 16.64 0 0 1-3.45-6.05 23.97 23.97 0 0 1-1.22-7.63c0-2.81.36-5.4 1.15-7.85.8-2.45 1.94-4.61 3.46-6.41a17.4 17.4 0 0 1 5.76-4.25c2.23-1 4.9-1.51 7.99-1.51 2.16 0 4.25.29 6.19.8a17.2 17.2 0 0 1 5.18 2.51 13.72 13.72 0 0 1 3.68 4.18 14.92 14.92 0 0 1 1.72 5.97h-8.2ZM504.5 69.8h8.21v29.23l14.83-15.05h10.08l-14.25 13.68 15.62 23.54h-10l-11.38-18.07-4.9 4.75v13.32h-8.2V69.8Zm61.85 29.51a11.51 11.51 0 0 0-2.66-6.91c-.8-.86-1.8-1.58-2.89-2.16a9.52 9.52 0 0 0-3.81-.79 9.6 9.6 0 0 0-3.89.72 8.4 8.4 0 0 0-3.02 2.09c-.87.93-1.52 1.94-2.02 3.17-.5 1.22-.8 2.52-.86 3.88h19.15Zm-19.15 5.4c0 1.44.21 2.81.64 4.18a9.67 9.67 0 0 0 1.8 3.53c.8 1 1.88 1.8 3.1 2.37a9.5 9.5 0 0 0 4.46.94c2.38 0 4.32-.5 5.84-1.58a8.93 8.93 0 0 0 3.24-4.61h7.77a15.04 15.04 0 0 1-6.05 9.36 17.95 17.95 0 0 1-4.96 2.52c-1.88.5-3.82.79-5.84.79-2.95 0-5.54-.5-7.77-1.44a15.45 15.45 0 0 1-5.69-4.03 16.96 16.96 0 0 1-3.53-6.2 25.03 25.03 0 0 1-1.22-7.91c0-2.67.43-5.12 1.3-7.56a17.92 17.92 0 0 1 3.6-6.27 16.8 16.8 0 0 1 13.1-5.83c2.95 0 5.54.58 7.92 1.8a17.27 17.27 0 0 1 5.76 4.9 20.64 20.64 0 0 1 3.38 6.9c.65 2.67.87 5.34.5 8.14H547.2Zm31.46-20.73h7.7v7.2h.15a7.5 7.5 0 0 1 1.44-2.95 12.5 12.5 0 0 1 2.52-2.67c.93-.72 2.01-1.37 3.24-1.87a9.53 9.53 0 0 1 3.67-.72c.93 0 1.65 0 2.01.07.36.07.72.07 1.08.15v7.92c-.57-.08-1.15-.15-1.72-.3-.65-.06-1.23-.06-1.8-.06-1.37 0-2.67.28-3.9.79a9.65 9.65 0 0 0-3.23 2.45 11.37 11.37 0 0 0-2.16 4.03 17.9 17.9 0 0 0-.8 5.47v17.71h-8.2V83.98Z"/><path fill="#1f221c" fill-rule="nonzero" d="M195.76 69.8h41.62v7.77h-16.34v43.63h-9V77.57h-16.28v-7.78Zm44.5 0h8.21v7.77h-8.2v-7.78Zm0 14.18h8.21v37.22h-8.2V83.98Zm14.98 0H263v5.18h.22c.65-.93 1.3-1.73 2.02-2.52a9.12 9.12 0 0 1 2.44-1.94c.87-.5 1.88-.94 3.03-1.3 1.15-.29 2.45-.43 3.96-.43 2.23 0 4.39.5 6.33 1.51a8.7 8.7 0 0 1 4.1 4.68 15.95 15.95 0 0 1 4.83-4.53c1.8-1.08 4.1-1.66 6.84-1.66 3.96 0 6.99.94 9.22 2.88 2.16 1.94 3.24 5.11 3.24 9.65v25.7h-8.21V99.46c0-1.51-.07-2.81-.14-4.1a8.54 8.54 0 0 0-.8-3.17 5.13 5.13 0 0 0-2.08-2.02 7.88 7.88 0 0 0-3.75-.72c-2.8 0-4.82.86-6.05 2.6-1.22 1.72-1.87 4.17-1.87 7.34v21.81h-8.2V97.3c0-2.6-.44-4.54-1.37-5.9-1.01-1.3-2.67-1.95-5.19-1.95-1.08 0-2.09.22-3.02.65a7.49 7.49 0 0 0-2.6 1.87c-.79.8-1.36 1.8-1.8 3.02a10.8 10.8 0 0 0-.71 4.1v22.11h-8.21V83.98Zm86.04 15.33a11.51 11.51 0 0 0-2.66-6.91c-.8-.86-1.8-1.58-2.89-2.16a9.52 9.52 0 0 0-3.81-.79 9.6 9.6 0 0 0-3.89.72 8.4 8.4 0 0 0-3.02 2.09c-.87.93-1.52 1.94-2.02 3.17-.5 1.22-.8 2.52-.86 3.88h19.15Zm-19.15 5.4c0 1.44.21 2.81.64 4.18a9.67 9.67 0 0 0 1.8 3.53c.8 1 1.88 1.8 3.1 2.37a9.5 9.5 0 0 0 4.46.94c2.38 0 4.32-.5 5.84-1.58a8.93 8.93 0 0 0 3.24-4.61h7.77a15.04 15.04 0 0 1-6.05 9.36 17.95 17.95 0 0 1-4.96 2.52c-1.88.5-3.82.79-5.84.79-2.95 0-5.54-.5-7.77-1.44a15.45 15.45 0 0 1-5.69-4.03 16.96 16.96 0 0 1-3.53-6.2 25.03 25.03 0 0 1-1.22-7.91c0-2.67.43-5.12 1.3-7.56a17.92 17.92 0 0 1 3.6-6.27 16.8 16.8 0 0 1 13.1-5.83c2.95 0 5.54.58 7.92 1.8a17.27 17.27 0 0 1 5.76 4.9 20.64 20.64 0 0 1 3.38 6.9c.65 2.67.87 5.34.5 8.14h-27.35ZM367.7 69.8h41.62v7.77h-16.34v43.63h-9V77.57H367.7v-7.78Z"/><path fill="#1f221c" fill-rule="nonzero" d="M405.36 83.98h7.7v7.2h.15a7.5 7.5 0 0 1 1.44-2.95 12.5 12.5 0 0 1 2.52-2.67c.93-.72 2.01-1.37 3.24-1.87a9.53 9.53 0 0 1 3.67-.72c.93 0 1.65 0 2.01.07.36.07.72.07 1.08.15v7.92c-.57-.08-1.15-.15-1.72-.3-.65-.06-1.23-.06-1.8-.06-1.37 0-2.67.28-3.9.79a9.65 9.65 0 0 0-3.23 2.45 11.37 11.37 0 0 0-2.16 4.03 17.9 17.9 0 0 0-.8 5.47v17.71h-8.2V83.98Zm54.35 28.94c0 1.01.15 1.73.44 2.16.21.43.72.65 1.5.65h.87c.36 0 .72-.07 1.15-.14v5.68c-.28.08-.64.22-1.08.36-.5.08-.93.22-1.44.3-.5.06-.93.14-1.44.2-.5.08-.86.08-1.22.08-1.66 0-3.1-.36-4.18-1-1.08-.66-1.8-1.88-2.16-3.54a15.01 15.01 0 0 1-5.97 3.46 23.79 23.79 0 0 1-6.91 1.08c-1.66 0-3.32-.22-4.83-.65a12.61 12.61 0 0 1-4.03-2.09 8.57 8.57 0 0 1-2.8-3.38 10.06 10.06 0 0 1-1.09-4.75c0-2.3.43-4.18 1.3-5.62a8.8 8.8 0 0 1 3.31-3.38c1.37-.8 2.88-1.44 4.6-1.8 1.66-.36 3.4-.58 5.12-.8a51 51 0 0 1 4.25-.64c1.37-.07 2.52-.29 3.6-.58 1-.29 1.8-.72 2.45-1.37.57-.57.86-1.44.86-2.66a4.1 4.1 0 0 0-.72-2.6 5.64 5.64 0 0 0-1.87-1.58 9.3 9.3 0 0 0-2.52-.72c-.94-.07-1.8-.14-2.6-.14-2.3 0-4.17.5-5.68 1.44-1.51.94-2.3 2.45-2.52 4.46h-8.21c.14-2.37.72-4.39 1.73-5.97 1-1.59 2.3-2.88 3.89-3.82a15.37 15.37 0 0 1 5.25-2.01c1.95-.36 3.96-.58 6.05-.58 1.8 0 3.6.22 5.4.58 1.8.36 3.38 1 4.82 1.87 1.37.86 2.52 1.94 3.39 3.31a9.37 9.37 0 0 1 1.3 5.04v19.15Zm-8.2-10.37a9.84 9.84 0 0 1-4.61 1.44c-1.8.22-3.67.44-5.47.8-.87.14-1.73.36-2.52.57-.8.29-1.52.65-2.16 1.08a4.99 4.99 0 0 0-1.44 1.8c-.36.8-.58 1.66-.58 2.74 0 .93.29 1.65.8 2.3.5.65 1.14 1.15 1.94 1.44.72.36 1.5.65 2.44.8.87.14 1.66.21 2.38.21.94 0 1.87-.14 2.95-.36a8.46 8.46 0 0 0 5.33-3.46 5.2 5.2 0 0 0 .94-3.24v-6.12Zm40.03-6.12c-.36-2.3-1.23-4.03-2.74-5.25a9.43 9.43 0 0 0-5.76-1.73c-1.08 0-2.16.14-3.38.5a9.33 9.33 0 0 0-3.32 2.02c-1 1-1.87 2.38-2.52 4.1-.64 1.8-1 4.1-1 6.92 0 1.5.21 3.1.57 4.6.36 1.52.87 2.88 1.73 4.1a8.9 8.9 0 0 0 3.02 2.89 8.17 8.17 0 0 0 4.54 1.15c2.38 0 4.4-.72 5.98-2.23a10.62 10.62 0 0 0 2.88-6.27h8.2c-.79 4.83-2.59 8.57-5.47 11.1-2.95 2.58-6.77 3.88-11.59 3.88-2.95 0-5.47-.5-7.7-1.51a15.45 15.45 0 0 1-5.7-4.03 16.64 16.64 0 0 1-3.45-6.05 23.97 23.97 0 0 1-1.22-7.63c0-2.81.36-5.4 1.15-7.85.8-2.45 1.94-4.61 3.46-6.41a17.4 17.4 0 0 1 5.76-4.25c2.23-1 4.9-1.51 7.99-1.51 2.16 0 4.25.29 6.19.8a17.2 17.2 0 0 1 5.18 2.51 13.72 13.72 0 0 1 3.68 4.18 14.92 14.92 0 0 1 1.72 5.97h-8.2ZM504.5 69.8h8.21v29.23l14.83-15.05h10.08l-14.25 13.68 15.62 23.54h-10l-11.38-18.07-4.9 4.75v13.32h-8.2V69.8Zm61.85 29.51a11.51 11.51 0 0 0-2.66-6.91c-.8-.86-1.8-1.58-2.89-2.16a9.52 9.52 0 0 0-3.81-.79 9.6 9.6 0 0 0-3.89.72 8.4 8.4 0 0 0-3.02 2.09c-.87.93-1.52 1.94-2.02 3.17-.5 1.22-.8 2.52-.86 3.88h19.15Zm-19.15 5.4c0 1.44.21 2.81.64 4.18a9.67 9.67 0 0 0 1.8 3.53c.8 1 1.88 1.8 3.1 2.37a9.5 9.5 0 0 0 4.46.94c2.38 0 4.32-.5 5.84-1.58a8.93 8.93 0 0 0 3.24-4.61h7.77a15.04 15.04 0 0 1-6.05 9.36 17.95 17.95 0 0 1-4.96 2.52c-1.88.5-3.82.79-5.84.79-2.95 0-5.54-.5-7.77-1.44a15.45 15.45 0 0 1-5.69-4.03 16.96 16.96 0 0 1-3.53-6.2 25.03 25.03 0 0 1-1.22-7.91c0-2.67.43-5.12 1.3-7.56a17.92 17.92 0 0 1 3.6-6.27 16.8 16.8 0 0 1 13.1-5.83c2.95 0 5.54.58 7.92 1.8a17.27 17.27 0 0 1 5.76 4.9 20.64 20.64 0 0 1 3.38 6.9c.65 2.67.87 5.34.5 8.14H547.2Zm31.46-20.73h7.7v7.2h.15a7.5 7.5 0 0 1 1.44-2.95 12.5 12.5 0 0 1 2.52-2.67c.93-.72 2.01-1.37 3.24-1.87a9.53 9.53 0 0 1 3.67-.72c.93 0 1.65 0 2.01.07.36.07.72.07 1.08.15v7.92c-.57-.08-1.15-.15-1.72-.3-.65-.06-1.23-.06-1.8-.06-1.37 0-2.67.28-3.9.79a9.65 9.65 0 0 0-3.23 2.45 11.37 11.37 0 0 0-2.16 4.03 17.9 17.9 0 0 0-.8 5.47v17.71h-8.2V83.98Z"/><path fill="#cc071e" d="M67.2 19.2A12.8 12.8 0 0 0 54.4 6.4V0h51.2v6.4a12.8 12.8 0 0 0-12.8 12.8H67.2Z"/><g transform="matrix(.611 0 0 .611 -531.32 -515.32)"><circle cx="1000" cy="1000" r="10.47" fill="none" stroke="#fff" stroke-width="3.27"/><circle cx="1000" cy="1000" r="10.47" fill="#1f221c"/></g><path fill="#cc071e" d="M82.5 38.5v45a2.5 2.5 0 0 1-5 0v-45a2.5 2.5 0 0 1 5 0Zm23.93 87.47-19.1-19.1a2.5 2.5 0 0 1 3.54-3.53l19.1 19.09a2.5 2.5 0 0 1-3.54 3.54Z"/><path fill="#cc071e" fill-rule="nonzero" d="m592.24 43.93-2.56-1.16c-4.76-2.07-9.58-4-14.43-5.84a326.9 326.9 0 0 0-27.93-9.28 315.92 315.92 0 0 0-91.8-11.77 304.55 304.55 0 0 0-68.14 9.21 288.32 288.32 0 0 0-93.42 42.3c5.82-3.2 11.78-6.2 17.87-9.03a296.09 296.09 0 0 1 71.02-22.48l1.82-.34c.86-.16 1.73-.3 2.6-.45a307.82 307.82 0 0 1 56.63-4.2 314.27 314.27 0 0 1 21.48 1.09 320.28 320.28 0 0 1 28.87 3.86 322.72 322.72 0 0 1 43.8 11.1l1.61.56A332.81 332.81 0 0 1 564 56.72c4.1 1.75 8.2 3.54 12.23 5.44 1.48.7 2.94 1.44 4.4 2.16a341.88 341.88 0 0 1 20.3 10.87l13.04-20.57a333.42 333.42 0 0 0-21.72-10.7Z"/></svg>